<svg aria-hidden="true" style="position: absolute; width: 0; height: 0; overflow: hidden;" version="1.1" xmlns="http://www.w3.org/2000/svg" xmlns:xlink="http://www.w3.org/1999/xlink">
<defs>
<symbol id="icon-phone" viewBox="0 0 32 32">
<path fill="#0075ff" style="fill: var(--color1, #0075ff)" d="M25.854 31.453c-0.011 0-0.022 0-0.033 0-5.279-0.173-11.463-5.29-15.724-9.553-4.266-4.263-9.383-10.45-9.548-15.704-0.060-1.844 4.464-5.122 4.511-5.155 1.174-0.818 2.478-0.527 3.013 0.214 0.362 0.502 3.792 5.698 4.165 6.288 0.387 0.612 0.329 1.523-0.154 2.436-0.266 0.508-1.15 2.060-1.564 2.785 0.447 0.636 1.63 2.198 4.071 4.639 2.445 2.442 4.003 3.627 4.642 4.074 0.724-0.414 2.277-1.298 2.785-1.564 0.9-0.477 1.805-0.538 2.423-0.159 0.631 0.387 5.814 3.833 6.291 4.165 0.401 0.283 0.659 0.765 0.711 1.328 0.049 0.568-0.126 1.169-0.491 1.693-0.030 0.044-3.27 4.513-5.098 4.513z"></path>
</symbol>
<symbol id="icon-logo" viewBox="0 0 136 32">
<path fill="#0075ff" style="fill: var(--color1, #0075ff)" d="M5.097 7.309l-4.811 1.025 4.82 1.411c0.3 0.090 0.57 0.258 0.783 0.488s0.36 0.512 0.427 0.818l1.201 5.766 1.297-5.661c0.076-0.316 0.238-0.605 0.469-0.834s0.52-0.389 0.837-0.463l4.82-1.095-4.96-1.393c-0.296-0.099-0.56-0.276-0.765-0.512s-0.343-0.522-0.4-0.829l-1.104-5.556-1.253 5.521c-0.077 0.326-0.246 0.623-0.487 0.856s-0.543 0.392-0.872 0.458z"></path>
<path fill="#0075ff" style="fill: var(--color1, #0075ff)" d="M11.921 22.939l-4.309 0.918 4.317 1.264c0.268 0.080 0.511 0.231 0.701 0.437s0.322 0.459 0.382 0.732l1.075 5.164 1.162-5.070c0.068-0.283 0.213-0.541 0.42-0.747s0.466-0.349 0.749-0.415l4.317-0.981-4.442-1.248c-0.265-0.089-0.502-0.247-0.685-0.458s-0.307-0.467-0.359-0.742l-0.989-4.976-1.122 4.944c-0.069 0.292-0.22 0.558-0.436 0.767s-0.486 0.351-0.781 0.411z"></path>
<path fill="#0075ff" style="fill: var(--color1, #0075ff)" d="M21.69 10.946l-7.371 1.571 7.384 2.162c0.459 0.138 0.873 0.396 1.199 0.748s0.551 0.784 0.654 1.253l1.839 8.834 1.987-8.673c0.116-0.484 0.365-0.926 0.718-1.277s0.797-0.597 1.282-0.71l7.384-1.678-7.599-2.135c-0.454-0.152-0.858-0.423-1.172-0.784s-0.526-0.8-0.613-1.27l-1.692-8.512-1.92 8.458c-0.118 0.499-0.377 0.955-0.746 1.312s-0.832 0.601-1.335 0.702z"></path>
<path fill="#211f54" style="fill: var(--color2, #211f54)" d="M43.063 15.082c0-1.174 0.287-2.257 0.862-3.251 0.587-0.994 1.377-1.778 2.371-2.353 0.994-0.587 2.078-0.88 3.251-0.88 1.197 0 2.305 0.311 3.323 0.934 1.018 0.611 1.802 1.425 2.353 2.443l-2.066 1.096c-0.359-0.635-0.862-1.144-1.509-1.527-0.647-0.395-1.347-0.593-2.102-0.593-0.742 0-1.437 0.186-2.084 0.557-0.635 0.371-1.138 0.874-1.509 1.509s-0.557 1.323-0.557 2.066c0 0.742 0.186 1.431 0.557 2.066s0.874 1.138 1.509 1.509c0.647 0.371 1.341 0.557 2.084 0.557 0.778 0 1.485-0.198 2.12-0.593 0.647-0.395 1.15-0.922 1.509-1.581l2.066 1.132c-0.551 1.030-1.335 1.856-2.353 2.479-1.018 0.611-2.132 0.916-3.341 0.916-1.174 0-2.257-0.287-3.251-0.862-0.994-0.587-1.784-1.377-2.371-2.371-0.575-0.994-0.862-2.078-0.862-3.251zM59.177 18.801c0 0.192 0.048 0.329 0.144 0.413s0.245 0.126 0.449 0.126c0.156 0 0.341-0.018 0.557-0.054v2.048c-0.443 0.072-0.856 0.108-1.239 0.108-0.695 0-1.227-0.18-1.599-0.539-0.359-0.371-0.539-1.024-0.539-1.958v-10.185h2.227v10.041zM65.802 12.118c0.862 0 1.635 0.216 2.317 0.647 0.695 0.419 1.233 0.988 1.617 1.707s0.575 1.515 0.575 2.389c0 0.287-0.024 0.551-0.072 0.79h-6.934c0.18 0.635 0.497 1.132 0.952 1.491 0.455 0.347 1.036 0.521 1.742 0.521 0.431 0 0.844-0.096 1.239-0.287 0.407-0.192 0.713-0.437 0.916-0.736l1.706 1.006c-0.419 0.623-0.964 1.102-1.635 1.437-0.659 0.323-1.419 0.485-2.281 0.485-0.958 0-1.808-0.204-2.551-0.611s-1.317-0.97-1.724-1.689c-0.395-0.718-0.593-1.527-0.593-2.425 0-0.886 0.198-1.688 0.593-2.407 0.407-0.718 0.97-1.281 1.688-1.688 0.719-0.419 1.533-0.629 2.443-0.629zM68.227 15.909c-0.096-0.575-0.365-1.024-0.808-1.347-0.431-0.335-0.976-0.503-1.635-0.503-0.455 0-0.874 0.084-1.257 0.252-0.371 0.168-0.671 0.395-0.898 0.683s-0.347 0.593-0.359 0.916h4.958zM78.761 12.352h2.228v8.981h-2.228v-0.88c-0.419 0.359-0.88 0.641-1.383 0.844-0.491 0.192-1.012 0.287-1.563 0.287-0.91 0-1.706-0.204-2.389-0.611s-1.21-0.97-1.581-1.689c-0.359-0.718-0.539-1.527-0.539-2.425s0.18-1.706 0.539-2.425c0.371-0.718 0.898-1.281 1.581-1.688 0.683-0.419 1.479-0.629 2.389-0.629 0.551 0 1.072 0.102 1.563 0.305 0.503 0.192 0.964 0.467 1.383 0.826v-0.898zM76.103 19.447c0.491 0 0.934-0.108 1.329-0.323 0.407-0.227 0.725-0.539 0.952-0.934 0.24-0.395 0.36-0.844 0.36-1.347 0-0.754-0.258-1.371-0.773-1.85-0.503-0.479-1.125-0.719-1.868-0.719-0.754 0-1.377 0.245-1.868 0.737-0.479 0.479-0.718 1.096-0.718 1.85s0.239 1.377 0.718 1.868c0.491 0.479 1.114 0.719 1.868 0.719zM87.843 12.118c0.526 0 1.060 0.114 1.598 0.341 0.551 0.216 1.018 0.611 1.401 1.186 0.395 0.575 0.593 1.347 0.593 2.317v5.371h-2.228v-5.371c0-0.671-0.191-1.15-0.574-1.437-0.371-0.299-0.808-0.449-1.311-0.449s-0.934 0.18-1.294 0.539c-0.347 0.347-0.52 0.91-0.52 1.689v5.030h-2.228v-8.981h2.228v0.754c0.323-0.299 0.683-0.539 1.077-0.719s0.814-0.269 1.258-0.269zM94.358 10.861c-0.419 0-0.748-0.114-0.987-0.341s-0.36-0.539-0.36-0.934c0-0.407 0.12-0.725 0.36-0.952s0.568-0.341 0.987-0.341c0.42 0 0.749 0.114 0.988 0.341s0.36 0.545 0.36 0.952c0 0.383-0.126 0.695-0.377 0.934-0.24 0.227-0.563 0.341-0.971 0.341zM93.227 21.333v-8.981h2.228v8.981h-2.228zM102.245 12.118c0.527 0 1.060 0.114 1.598 0.341 0.551 0.216 1.018 0.611 1.401 1.186 0.395 0.575 0.593 1.347 0.593 2.317v5.371h-2.227v-5.371c0-0.671-0.192-1.15-0.575-1.437-0.371-0.299-0.808-0.449-1.311-0.449s-0.934 0.18-1.293 0.539c-0.347 0.347-0.521 0.91-0.521 1.689v5.030h-2.227v-8.981h2.227v0.754c0.323-0.299 0.683-0.539 1.078-0.719s0.814-0.269 1.257-0.269zM114.67 12.352h2.228v8.532c0 0.85-0.216 1.599-0.647 2.245-0.419 0.647-1.006 1.144-1.76 1.491-0.755 0.359-1.599 0.539-2.533 0.539-1.042 0-1.988-0.204-2.838-0.611-0.85-0.395-1.448-0.916-1.796-1.563l1.904-1.096c0.18 0.347 0.515 0.635 1.006 0.862 0.491 0.24 1.084 0.359 1.778 0.359 0.766 0 1.401-0.21 1.904-0.629 0.503-0.407 0.754-0.94 0.754-1.599v-0.413c-0.407 0.359-0.862 0.635-1.365 0.826s-1.024 0.287-1.563 0.287c-0.91 0-1.707-0.204-2.389-0.611s-1.21-0.97-1.581-1.689c-0.359-0.718-0.539-1.527-0.539-2.425s0.18-1.706 0.539-2.425c0.371-0.718 0.898-1.281 1.581-1.688 0.683-0.419 1.479-0.629 2.389-0.629 0.539 0 1.054 0.102 1.544 0.305 0.503 0.192 0.964 0.461 1.383 0.808v-0.88zM112.030 19.447c0.491 0 0.934-0.108 1.329-0.323 0.408-0.227 0.725-0.539 0.952-0.934 0.239-0.395 0.359-0.844 0.359-1.347 0-0.754-0.257-1.371-0.772-1.85-0.503-0.479-1.126-0.719-1.868-0.719-0.754 0-1.378 0.245-1.868 0.737-0.479 0.479-0.718 1.096-0.718 1.85s0.239 1.377 0.718 1.868c0.491 0.479 1.114 0.719 1.868 0.719zM130.341 15.028l4.077 6.305h-2.802l-2.91-4.509-2.91 4.509h-2.802l4.078-6.305-4.060-6.269h2.802l2.892 4.473 2.892-4.473h2.802l-4.059 6.269z"></path>
</symbol>
<symbol id="icon-check" viewBox="0 0 45 32">
<path fill="#0075ff" style="fill: var(--color1, #0075ff)" d="M18.435 30.81c-1.070 0-2.141-0.41-2.956-1.225l-12.545-12.545c-1.635-1.635-1.635-4.278 0-5.913s4.278-1.635 5.913 0l9.588 9.589 17.952-17.952c1.635-1.635 4.278-1.635 5.913 0s1.635 4.278 0 5.913l-20.908 20.908c-0.815 0.815-1.886 1.225-2.956 1.225z"></path>
</symbol>
<symbol id="icon-anothercheck" viewBox="0 0 32 32">
<path fill="#edf5ff" style="fill: var(--color1, #edf5ff)" d="M16 32c8.837 0 16-7.163 16-16s-7.163-16-16-16c-8.837 0-16 7.163-16 16s7.163 16 16 16z"></path>
<path fill="none" stroke="#0075ff" style="stroke: var(--color2, #0075ff)" stroke-linejoin="round" stroke-linecap="round" stroke-miterlimit="4" stroke-width="2.4615" d="M8.759 17.035l4.138 4.138 10.344-10.344"></path>
</symbol>
</defs>
</svg>
